#!OML:ASF H:\ColoradoDance\Project 1\Capture day 1\Session 8\male.ASF
:FULLY-SPECIFIED
:DEGREES
107
upperback -2.860340 1.943310 -0.052294
rfoot -3.208540 -18.513399
lradius 27.257999
lthumb 9.053300 22.637199
rradius 53.085400
lwrist -14.439500
rhand -40.171299 5.078280
rhumerus -28.655300 11.084200 -86.870399
lowerneck -4.779280 -9.458570 -2.649520
lhand -17.188700 -7.148510
ltibia 61.883999
head 0.841058 -6.261710 2.406930
rwrist 7.400020
lfingers 7.125020
rtoes 1.260510
lowerback 6.291160 1.633990 -2.604140
rfingers 7.125020
lclavicle -0.000000 0.000000
upperneck -2.041610 -12.577100 7.290840
rfemur -45.225300 -22.460600 8.862190
thorax -6.607730 1.065310 1.174250
rclavicle -0.000000 0.000000
rtibia 80.848602
lfoot -28.385099 2.619620
lhumerus -29.806601 7.717600 40.859200
rthumb -13.132900 -384.488007
root 15.466400 17.135700 -11.549000 757.591003 -71.857002 -22.490101
ltoes -21.675699
lfemur -37.462002 22.580799 -0.696766
108
upperback -3.230060 2.479330 -0.129354
rfoot -0.719727 -20.196199
lradius 23.858400
lthumb 17.105400 83.888199
rradius 53.063900
lwrist -12.354900
rhand -38.443100 5.418510
rhumerus -32.287300 13.615500 -94.409401
lowerneck -5.030480 -9.087000 -0.928190
lhand -8.834870 54.621201
ltibia 32.304699
head 1.797340 -6.031180 0.862358
rwrist 10.335100
lfingers 7.125020
rtoes -39.559700
lowerback 2.546400 1.956230 -2.367220
rfingers 7.125020
lclavicle -0.000000 0.000000
upperneck 2.100410 -12.206000 3.538130
rfemur -0.844622 7.887200 -1.667830
thorax -4.861010 1.306620 1.023100
rclavicle -0.000000 0.000000
rtibia 18.210699
lfoot -8.298050 19.653400
lhumerus -47.847099 14.259700 30.614000
rthumb -11.466600 -384.247986
root 15.934500 17.615400 -15.853400 754.935974 -71.900299 -22.611099
ltoes -16.809401
lfemur -24.084900 6.209110 14.446500
109
upperback -3.554770 0.961917 -0.747844
rfoot -27.919100 -32.876400
lradius 21.736900
lthumb 11.363800 55.741402
rradius 42.720001
lwrist -20.004000
rhand -34.601898 3.271080
rhumerus -35.246601 18.862600 -96.495796
lowerneck -4.922060 -6.598140 0.639604
lhand -14.793600 26.069300
ltibia 29.807501
head 1.992780 -4.402870 -0.383268
rwrist 16.892099
lfingers 7.125020
rtoes -9.832610
lowerback 1.463180 0.760104 0.104089
rfingers 7.125020
lclavicle -0.000000 -0.000000
upperneck 3.796150 -8.853200 0.013059
rfemur -9.044040 13.692800 12.845500
thorax -4.468170 0.448210 -0.879942
rclavicle -0.000000 -0.000000
rtibia 23.364201
lfoot -8.288230 29.285500
lhumerus -53.148899 18.862801 40.767799
rthumb -7.760560 -386.566010
root 16.439301 18.855499 -20.465700 752.617004 -73.384903 -19.170500
ltoes 3.764470
lfemur -22.703800 0.669474 6.655270
110
upperback -4.159080 0.254076 -0.689923
rfoot -30.710199 -30.088800
lradius 24.177700
lthumb 3.530740 57.990398
rradius 26.044399
lwrist -14.282400
rhand -38.488800 5.142960
rhumerus -36.440201 -0.387981 -80.851501
lowerneck -4.673490 -5.686390 -0.182463
lhand -22.909201 28.039900
ltibia 36.708199
head 2.011740 -3.782600 -0.414012
rwrist 19.365900
lfingers 7.125020
rtoes -6.338170
lowerback 0.625590 0.278944 -1.350420
rfingers 7.125020
lclavicle -0.000000 0.000000
upperneck 3.958530 -7.549010 -0.665449
rfemur -16.480200 14.224700 15.150200
thorax -4.641320 0.142299 0.034033
rclavicle -0.000000 0.000000
rtibia 33.178600
lfoot -29.697001 12.470200
lhumerus -49.536400 20.018999 54.663700
rthumb -11.510700 -384.520996
root 16.739599 19.056499 -22.835400 741.666992 -76.127403 -8.452270
ltoes 6.021510
lfemur -17.758600 0.240445 -19.770700
111
upperback -3.836560 -0.591934 0.076258
rfoot -30.092600 -26.379200
lradius 27.255699
lthumb 2.317660 57.881001
rradius 21.501600
lwrist -11.747200
rhand -34.247898 0.127394
rhumerus -45.237801 -13.589400 -71.689201
lowerneck -3.477590 -8.199230 -2.846930
lhand -24.165400 27.913799
ltibia 33.306099
head 1.376890 -5.415910 1.457360
rwrist 13.317000
lfingers 7.125020
rtoes -6.830970
lowerback 0.440646 -0.396986 -1.016810
rfingers 7.125020
lclavicle -0.000000 0.000000
upperneck 1.249330 -10.917800 4.029280
rfemur -17.414101 0.192710 21.965000
thorax -4.184970 -0.273644 0.673282
rclavicle -0.000000 0.000000
rtibia 37.009701
lfoot -26.764299 5.530850
lhumerus -43.544701 17.074600 66.727898
rthumb -7.418850 -389.722992
root 16.586901 19.036400 -23.989401 739.177002 -66.052696 -6.811620
ltoes 0.121315
lfemur -14.114200 -9.395070 -18.820101
112
upperback -3.340460 -0.195765 -0.907519
rfoot -11.821900 -14.971100
lradius 27.747400
lthumb 2.926940 56.729801
rradius 25.266701
lwrist -12.109300
rhand -32.449902 1.649780
rhumerus -47.034901 -10.837200 -78.597397
lowerneck -1.226750 -9.503850 -4.040330
lhand -23.534500 26.770100
ltibia 25.201900
head 1.240760 -6.345200 2.346190
rwrist 13.496000
lfingers 7.125020
rtoes -10.201800
lowerback 3.014510 0.078441 -4.277360
rfingers 7.125020
lclavicle -0.000000 -0.000000
upperneck 1.063170 -12.740200 6.071820
rfemur -39.112701 -16.271999 19.308399
thorax -5.147020 0.034342 1.471600
rclavicle -0.000000 -0.000000
rtibia 67.952499
lfoot -25.359600 3.407800
lhumerus -43.285000 12.368000 67.714897
rthumb -5.683150 -388.253998
root 15.976500 19.020300 -24.666500 731.783997 -63.426102 -1.153640
ltoes -2.897210
lfemur -6.981660 -10.032500 -18.077700
113
upperback -3.389800 0.441376 -1.495400
rfoot -0.262631 -26.941500
lradius 27.300301
lthumb 0.958233 57.692101
rradius 28.400600
lwrist -13.043600
rhand -41.563400 -3.401610
rhumerus -48.010601 -5.777540 -78.740402
lowerneck -0.893853 -9.827220 -4.283740
lhand -25.572901 27.714500
ltibia 17.077801
head 1.654140 -6.594830 2.391330
rwrist 8.431190
lfingers 7.125020
rtoes -24.830099
lowerback 2.702750 0.598899 -5.037110
rfingers 7.125020
lclavicle 0.000000 -0.000000
upperneck 2.346180 -13.250000 6.193770
rfemur -53.734299 -34.401798 24.841200
thorax -5.064490 0.361901 1.240610
rclavicle 0.000000 -0.000000
rtibia 46.057201
lfoot -27.236500 6.730330
lhumerus -43.678299 8.256960 63.866100
rthumb -14.474500 -392.877014
root 13.742100 18.472700 -25.276100 725.135986 -63.630402 3.050580
ltoes -9.966250
lfemur 6.837520 -12.333700 -17.354300
